<?xml version="1.0" encoding="UTF-8" standalone="no"?>
<svg
   width="200"
   height="200"
   viewBox="0 0 200 200"
   version="1.1"
   id="svg158"
   sodipodi:docname="logo_design_converted.svg"
   xml:space="preserve"
   inkscape:version="1.2.1 (9c6d41e, 2022-07-14)"
   xmlns:inkscape="http://www.inkscape.org/namespaces/inkscape"
   xmlns:sodipodi="http://sodipodi.sourceforge.net/DTD/sodipodi-0.dtd"
   xmlns="http://www.w3.org/2000/svg"
   xmlns:svg="http://www.w3.org/2000/svg"><defs
     id="defs162"><linearGradient
       id="linearGradient3240"
       inkscape:swatch="solid"><stop
         style="stop-color:#000000;stop-opacity:1;"
         offset="0"
         id="stop3238" /></linearGradient></defs><sodipodi:namedview
     id="namedview160"
     pagecolor="#ffffff"
     bordercolor="#000000"
     borderopacity="0.25"
     inkscape:showpageshadow="2"
     inkscape:pageopacity="0.0"
     inkscape:pagecheckerboard="0"
     inkscape:deskcolor="#d1d1d1"
     showgrid="false"
     inkscape:zoom="1.6999461"
     inkscape:cx="83.532059"
     inkscape:cy="153.8284"
     inkscape:window-width="1680"
     inkscape:window-height="997"
     inkscape:window-x="0"
     inkscape:window-y="25"
     inkscape:window-maximized="1"
     inkscape:current-layer="svg158" /><style
     type="text/css"
     id="style6464">
	.st0{fill:#4B4B4B;}
</style><path
     id="path6911"
     style="fill:#0e4462;fill-opacity:1;stroke:none;stroke-width:5.31429;stroke-dasharray:none;stroke-opacity:1"
     d="M 100.00391 10 A 91.179359 91.179359 0 0 0 8.8242188 101.17969 A 91.179359 91.179359 0 0 0 25.404297 153.53516 L 174.60352 153.53516 A 91.179359 91.179359 0 0 0 191.18164 101.17969 A 91.179359 91.179359 0 0 0 100.00391 10 z M 34.234375 164.12305 A 91.179359 91.179359 0 0 0 100.00391 192.35938 A 91.179359 91.179359 0 0 0 165.77148 164.12305 L 34.234375 164.12305 z " /><g
     style="fill:#ffffff;fill-opacity:1"
     id="g6493"
     transform="matrix(-0.25381346,0,0,0.25381346,163.28033,26.008929)"><g
       id="g6478"
       style="fill:#ffffff;fill-opacity:1">
	<polygon
   class="st0"
   points="211.663,56.625 109.554,0 40.796,123.997 142.905,180.614 "
   style="fill:#ffffff;fill-opacity:1"
   id="polygon6466" />
	<polygon
   class="st0"
   points="309.439,250.058 358.771,161.103 216.533,82.23 167.208,171.186 "
   style="fill:#ffffff;fill-opacity:1"
   id="polygon6468" />
	<polygon
   class="st0"
   points="366.626,181.331 330.759,246.014 396.392,282.42 432.267,217.721 "
   style="fill:#ffffff;fill-opacity:1"
   id="polygon6470" />
	<polygon
   class="st0"
   points="449.325,221.368 408.517,294.957 430.397,307.098 471.204,233.508 "
   style="fill:#ffffff;fill-opacity:1"
   id="polygon6472" />
	<path
   class="st0"
   d="m 258.346,303.092 h 34.098 V 280.853 H 187.663 v 22.239 h 34.106 l -114.428,157.73 c -3.11,4.145 -2.268,10.02 1.877,13.138 4.146,3.101 10.029,2.26 13.138,-1.886 l 105.74,-136.932 2.579,167.478 c 0,5.174 4.2,9.381 9.382,9.381 5.182,0 9.382,-4.208 9.382,-9.381 l 2.579,-167.478 105.74,136.932 c 3.109,4.146 8.992,4.987 13.137,1.886 4.146,-3.118 4.987,-8.992 1.878,-13.138 z"
   style="fill:#ffffff;fill-opacity:1"
   id="path6474" />
	<path
   class="st0"
   d="m 221.426,249.996 c 0,10.293 8.337,18.639 18.631,18.639 10.293,0 18.631,-8.346 18.631,-18.639 0,-10.293 -8.338,-18.638 -18.631,-18.638 -10.294,0 -18.631,8.345 -18.631,18.638 z"
   style="fill:#ffffff;fill-opacity:1"
   id="path6476" />
</g></g><path
     sodipodi:type="star"
     style="fill:#ffffff;fill-opacity:1;stroke:none;stroke-width:8;stroke-dasharray:none;stroke-opacity:1"
     id="path9434"
     inkscape:flatsided="false"
     sodipodi:sides="5"
     sodipodi:cx="32.942223"
     sodipodi:cy="101.76793"
     sodipodi:r1="8.4225149"
     sodipodi:r2="4.2112575"
     sodipodi:arg1="1.359703"
     sodipodi:arg2="1.9880215"
     inkscape:rounded="0"
     inkscape:randomized="0"
     d="m 34.706984,110.00348 -3.471269,-4.38555 -5.58063,0.37331 3.098228,-4.65658 -2.079551,-5.192134 5.38608,1.507625 4.295396,-3.582227 0.230553,5.588348 4.734252,2.978198 -5.24359,1.94616 z"
     inkscape:transform-center-x="-0.54534139"
     inkscape:transform-center-y="0.26777505"
     transform="translate(-1.7647618,20.000634)" /><path
     sodipodi:type="star"
     style="fill:#ffffff;fill-opacity:1;stroke:none;stroke-width:8;stroke-dasharray:none;stroke-opacity:1"
     id="path9436"
     inkscape:flatsided="false"
     sodipodi:sides="5"
     sodipodi:cx="151.18126"
     sodipodi:cy="115.29777"
     sodipodi:r1="13.061357"
     sodipodi:r2="6.5306787"
     sodipodi:arg1="-0.62548504"
     sodipodi:arg2="0.0028334905"
     inkscape:rounded="0"
     inkscape:randomized="0"
     d="m 161.76983,107.65047 -4.05792,7.6658 4.01441,7.68868 -8.54458,-1.49044 -6.07184,6.19386 -1.22293,-8.58695 -7.76701,-3.86066 7.78877,-3.81658 1.27156,-8.57989 6.03665,6.22818 z"
     inkscape:transform-center-x="1.2363669"
     inkscape:transform-center-y="-0.011436466"
     transform="translate(11.765079,8.2355551)" /><path
     sodipodi:type="star"
     style="fill:#ffffff;fill-opacity:1;stroke:none;stroke-width:8;stroke-dasharray:none;stroke-opacity:1"
     id="path9438"
     inkscape:flatsided="false"
     sodipodi:sides="5"
     sodipodi:cx="60.590157"
     sodipodi:cy="39.413013"
     sodipodi:r1="9.7904968"
     sodipodi:r2="4.8952484"
     sodipodi:arg1="-0.57133748"
     sodipodi:arg2="0.056981051"
     inkscape:rounded="0"
     inkscape:randomized="0"
     d="m 68.825712,34.118728 -3.348252,5.573071 2.692788,5.917669 -6.334972,-1.462203 -4.795921,4.389653 -0.566976,-6.476762 -5.656829,-3.204713 5.984561,-2.540657 1.299807,-6.370275 4.265639,4.90655 z"
     inkscape:transform-center-x="0.76952592"
     inkscape:transform-center-y="-0.1722989" /></svg>
