<?xml version="1.0" encoding="UTF-8" standalone="no"?>
<!-- Created with Inkscape (http://www.inkscape.org/) -->

<svg
   width="93.057999mm"
   height="30.629793mm"
   viewBox="0 0 93.057999 30.629791"
   version="1.1"
   id="svg5"
   xml:space="preserve"
   inkscape:version="1.2 (dc2aedaf03, 2022-05-15)"
   sodipodi:docname="outap.svg"
   xmlns:inkscape="http://www.inkscape.org/namespaces/inkscape"
   xmlns:sodipodi="http://sodipodi.sourceforge.net/DTD/sodipodi-0.dtd"
   xmlns="http://www.w3.org/2000/svg"
   xmlns:svg="http://www.w3.org/2000/svg"><sodipodi:namedview
     id="namedview7"
     pagecolor="#ffffff"
     bordercolor="#000000"
     borderopacity="0.25"
     inkscape:showpageshadow="2"
     inkscape:pageopacity="0.0"
     inkscape:pagecheckerboard="0"
     inkscape:deskcolor="#d1d1d1"
     inkscape:document-units="mm"
     showgrid="false"
     inkscape:zoom="5.2560325"
     inkscape:cx="208.04666"
     inkscape:cy="113.48864"
     inkscape:window-width="3840"
     inkscape:window-height="2054"
     inkscape:window-x="-11"
     inkscape:window-y="-11"
     inkscape:window-maximized="1"
     inkscape:current-layer="layer2"><inkscape:grid
       type="xygrid"
       id="grid1414"
       originx="-14.516401"
       originy="-11.261415" /></sodipodi:namedview><defs
     id="defs2" /><g
     inkscape:groupmode="layer"
     id="layer2"
     inkscape:label="Layer 2"
     style="display:inline"
     transform="translate(-14.5164,-11.261422)"><path
       style="display:inline;fill:#000080;fill-opacity:1;stroke-width:0.2"
       d="m 37.57805,13.163644 v 3.108432 h -6.518897 v 7.110382 h 3.309787 v -3.939026 h 11.187839 v -3.18394 h -4.291398 v -3.095848 z"
       id="path404" /><g
       aria-label="Osaka University Theoretical Astrophysics"
       transform="scale(1.0353244,0.96588083)"
       id="text2340"
       style="font-weight:bold;font-size:4.08428px;font-family:'Noto Sans JP';-inkscape-font-specification:'Noto Sans JP Bold';text-align:center;text-anchor:middle;fill:#000080;stroke-width:0.128639"><path
         d="m 18.679268,41.298276 c 0.800519,0 1.351897,-0.600389 1.351897,-1.580616 0,-0.980227 -0.551378,-1.556111 -1.351897,-1.556111 -0.800519,0 -1.351896,0.5718 -1.351896,1.556111 0,0.980227 0.551377,1.580616 1.351896,1.580616 z m 0,-0.522787 c -0.44927,0 -0.73517,-0.412513 -0.73517,-1.057829 0,-0.6494 0.2859,-1.037407 0.73517,-1.037407 0.449271,0 0.735171,0.388007 0.735171,1.037407 0,0.645316 -0.2859,1.057829 -0.735171,1.057829 z"
         id="path370" /><path
         d="m 21.227861,41.298276 c 0.596305,0 0.910794,-0.322658 0.910794,-0.722917 0,-0.424765 -0.334911,-0.575884 -0.637147,-0.690243 -0.240973,-0.08985 -0.453355,-0.151119 -0.453355,-0.318574 0,-0.130697 0.09802,-0.220551 0.306321,-0.220551 0.167455,0 0.326742,0.0776 0.490113,0.196045 l 0.269563,-0.363501 c -0.187877,-0.14295 -0.445187,-0.281815 -0.776013,-0.281815 -0.522788,0 -0.853615,0.289984 -0.853615,0.698412 0,0.383922 0.322658,0.559546 0.612642,0.669822 0.240973,0.09394 0.477861,0.171539 0.477861,0.343079 0,0.14295 -0.102107,0.240973 -0.330827,0.240973 -0.212383,0 -0.408428,-0.08986 -0.612642,-0.249141 l -0.273647,0.375753 c 0.22872,0.187877 0.563631,0.322658 0.869952,0.322658 z"
         id="path372" /><path
         d="m 23.159729,41.298276 c 0.261394,0 0.490113,-0.130697 0.690243,-0.302236 h 0.01634 l 0.04084,0.245056 h 0.490113 v -1.335559 c 0,-0.661653 -0.298152,-1.008817 -0.87812,-1.008817 -0.359416,0 -0.686159,0.134781 -0.955721,0.302236 l 0.216467,0.396176 c 0.212382,-0.122529 0.416596,-0.216467 0.628979,-0.216467 0.281815,0 0.379838,0.17154 0.392091,0.396175 -0.923048,0.09802 -1.319223,0.355332 -1.319223,0.845446 0,0.388007 0.269563,0.67799 0.677991,0.67799 z m 0.196045,-0.469692 c -0.175624,0 -0.302237,-0.0776 -0.302237,-0.257309 0,-0.204214 0.187877,-0.359417 0.747424,-0.42885 v 0.461524 c -0.147034,0.14295 -0.273647,0.224635 -0.445187,0.224635 z"
         id="path374" /><path
         d="m 25.009906,41.241096 h 0.59222 v -0.579967 l 0.322659,-0.367585 0.555462,0.947552 h 0.6494 L 26.271948,39.897368 27.05613,38.9539 h -0.657569 l -0.780097,0.984311 h -0.01634 v -1.95637 h -0.59222 z"
         id="path376" /><path
         d="m 27.995516,41.298276 c 0.261394,0 0.490114,-0.130697 0.690244,-0.302236 h 0.01634 l 0.04084,0.245056 h 0.490113 v -1.335559 c 0,-0.661653 -0.298152,-1.008817 -0.87812,-1.008817 -0.359417,0 -0.686159,0.134781 -0.955721,0.302236 l 0.216466,0.396176 c 0.212383,-0.122529 0.416597,-0.216467 0.628979,-0.216467 0.281816,0 0.379839,0.17154 0.392091,0.396175 -0.923047,0.09802 -1.319222,0.355332 -1.319222,0.845446 0,0.388007 0.269562,0.67799 0.67799,0.67799 z m 0.196046,-0.469692 c -0.175624,0 -0.302237,-0.0776 -0.302237,-0.257309 0,-0.204214 0.187877,-0.359417 0.747423,-0.42885 v 0.461524 c -0.147034,0.14295 -0.273646,0.224635 -0.445186,0.224635 z"
         id="path378" /><path
         d="m 31.981769,41.298276 c 0.739255,0 1.168104,-0.412512 1.168104,-1.417245 v -1.666386 h -0.579967 v 1.719482 c 0,0.628979 -0.22872,0.841362 -0.588137,0.841362 -0.351248,0 -0.571799,-0.212383 -0.571799,-0.841362 v -1.719482 h -0.604473 v 1.666386 c 0,1.004733 0.441102,1.417245 1.176272,1.417245 z"
         id="path380" /><path
         d="m 33.827861,41.241096 h 0.600389 v -1.572447 c 0.167456,-0.167456 0.2859,-0.25731 0.473777,-0.25731 0.224635,0 0.322658,0.122528 0.322658,0.477861 v 1.351896 h 0.600389 v -1.425413 c 0,-0.575884 -0.212383,-0.918963 -0.706581,-0.918963 -0.310405,0 -0.543209,0.163371 -0.743339,0.359416 h -0.01225 L 34.317974,38.9539 h -0.490113 z"
         id="path382" /><path
         d="m 36.445888,41.241096 h 0.600389 V 38.9539 h -0.600389 z m 0.302236,-2.654782 c 0.204214,0 0.347164,-0.130696 0.347164,-0.330826 0,-0.196046 -0.14295,-0.326743 -0.347164,-0.326743 -0.208298,0 -0.351248,0.130697 -0.351248,0.326743 0,0.20013 0.14295,0.330826 0.351248,0.330826 z"
         id="path384" /><path
         d="m 38.202132,41.241096 h 0.694327 L 39.66022,38.9539 h -0.575884 l -0.334911,1.139514 c -0.06126,0.224635 -0.122528,0.461523 -0.183792,0.694327 h -0.02042 c -0.06126,-0.232804 -0.122528,-0.469692 -0.183792,-0.694327 L 38.026508,38.9539 h -0.604474 z"
         id="path386" /><path
         d="m 41.003951,41.298276 c 0.281815,0 0.571799,-0.09802 0.796434,-0.253225 l -0.204214,-0.367585 c -0.163371,0.102107 -0.326742,0.159287 -0.514619,0.159287 -0.338995,0 -0.584052,-0.196046 -0.633064,-0.571799 h 1.409077 c 0.01634,-0.0531 0.02859,-0.163372 0.02859,-0.277731 0,-0.62898 -0.326742,-1.090503 -0.955721,-1.090503 -0.54321,0 -1.065998,0.461523 -1.065998,1.200778 0,0.755592 0.498283,1.200778 1.139515,1.200778 z M 40.44032,39.864694 c 0.04493,-0.330827 0.25731,-0.502366 0.498282,-0.502366 0.294068,0 0.432934,0.196045 0.432934,0.502366 z"
         id="path388" /><path
         d="m 42.380349,41.241096 h 0.600389 v -1.364149 c 0.126613,-0.330827 0.34308,-0.449271 0.522788,-0.449271 0.09394,0 0.159287,0.01225 0.240973,0.03676 l 0.102107,-0.518704 c -0.06943,-0.02859 -0.14295,-0.04901 -0.269563,-0.04901 -0.236888,0 -0.481945,0.163371 -0.6494,0.461523 H 42.91539 L 42.870463,38.9539 h -0.490114 z"
         id="path390" /><path
         d="m 44.781913,41.298276 c 0.596305,0 0.910795,-0.322658 0.910795,-0.722917 0,-0.424765 -0.334911,-0.575884 -0.637148,-0.690243 -0.240972,-0.08985 -0.453355,-0.151119 -0.453355,-0.318574 0,-0.130697 0.09802,-0.220551 0.306321,-0.220551 0.167455,0 0.326742,0.0776 0.490114,0.196045 l 0.269562,-0.363501 c -0.187877,-0.14295 -0.445186,-0.281815 -0.776013,-0.281815 -0.522788,0 -0.853615,0.289984 -0.853615,0.698412 0,0.383922 0.322658,0.559546 0.612642,0.669822 0.240973,0.09394 0.477861,0.171539 0.477861,0.343079 0,0.14295 -0.102107,0.240973 -0.330827,0.240973 -0.212382,0 -0.408428,-0.08986 -0.612642,-0.249141 l -0.273646,0.375753 c 0.228719,0.187877 0.56363,0.322658 0.869951,0.322658 z"
         id="path392" /><path
         d="m 46.150149,41.241096 h 0.60039 V 38.9539 h -0.60039 z m 0.302237,-2.654782 c 0.204214,0 0.347164,-0.130696 0.347164,-0.330826 0,-0.196046 -0.14295,-0.326743 -0.347164,-0.326743 -0.208298,0 -0.351248,0.130697 -0.351248,0.326743 0,0.20013 0.14295,0.330826 0.351248,0.330826 z"
         id="path394" /><path
         d="m 48.229052,41.298276 c 0.200129,0 0.359416,-0.04493 0.481945,-0.08577 l -0.09802,-0.437018 c -0.06126,0.0245 -0.151118,0.04901 -0.224635,0.04901 -0.204214,0 -0.310406,-0.122528 -0.310406,-0.383922 v -1.012902 h 0.563631 V 38.9539 h -0.563631 v -0.616727 h -0.498282 l -0.06943,0.616727 -0.355332,0.02859 v 0.445186 h 0.322658 v 1.012902 c 0,0.510535 0.208298,0.857698 0.751508,0.857698 z"
         id="path396" /><path
         d="m 49.307303,42.160059 c 0.510535,0 0.755592,-0.310405 0.955721,-0.84953 L 51.075796,38.9539 h -0.575884 l -0.314489,1.061912 c -0.0531,0.212383 -0.110276,0.432934 -0.163371,0.645317 h -0.02042 c -0.06535,-0.220551 -0.122528,-0.441103 -0.191961,-0.645317 L 49.446168,38.9539 h -0.604473 l 0.890373,2.246354 -0.04084,0.134781 c -0.06535,0.20013 -0.196045,0.347164 -0.428849,0.347164 -0.0531,0 -0.118444,-0.01634 -0.159287,-0.02859 l -0.110276,0.461523 c 0.08985,0.02859 0.179708,0.04493 0.31449,0.04493 z"
         id="path398" /><path
         d="m 53.028075,41.241096 h 0.604474 v -2.52 h 0.857698 v -0.506451 h -2.311702 v 0.506451 h 0.84953 z"
         id="path400" /><path
         d="m 54.931352,41.241096 h 0.600389 v -1.572447 c 0.167455,-0.167456 0.285899,-0.25731 0.473776,-0.25731 0.224636,0 0.322658,0.122528 0.322658,0.477861 v 1.351896 h 0.60039 v -1.425413 c 0,-0.575884 -0.212383,-0.918963 -0.706581,-0.918963 -0.310405,0 -0.535041,0.163371 -0.718833,0.334911 l 0.02859,-0.42885 v -0.82094 h -0.600389 z"
         id="path402" /><path
         d="m 58.54185,41.298276 c 0.281815,0 0.571799,-0.09802 0.796434,-0.253225 L 59.13407,40.677466 c -0.163371,0.102107 -0.326742,0.159287 -0.514619,0.159287 -0.338995,0 -0.584052,-0.196046 -0.633064,-0.571799 h 1.409077 c 0.01634,-0.0531 0.02859,-0.163372 0.02859,-0.277731 0,-0.62898 -0.326742,-1.090503 -0.955721,-1.090503 -0.54321,0 -1.065998,0.461523 -1.065998,1.200778 0,0.755592 0.498283,1.200778 1.139515,1.200778 z m -0.563631,-1.433582 c 0.04493,-0.330827 0.25731,-0.502366 0.498282,-0.502366 0.294068,0 0.432934,0.196045 0.432934,0.502366 z"
         id="path405" /><path
         d="m 60.873974,41.298276 c 0.571799,0 1.098671,-0.441102 1.098671,-1.200778 0,-0.759676 -0.526872,-1.200778 -1.098671,-1.200778 -0.5718,0 -1.098672,0.441102 -1.098672,1.200778 0,0.759676 0.526872,1.200778 1.098672,1.200778 z m 0,-0.490113 c -0.310406,0 -0.48603,-0.277731 -0.48603,-0.710665 0,-0.428849 0.175624,-0.710665 0.48603,-0.710665 0.310405,0 0.486029,0.281816 0.486029,0.710665 0,0.432934 -0.175624,0.710665 -0.486029,0.710665 z"
         id="path407" /><path
         d="m 62.475007,41.241096 h 0.600389 v -1.364149 c 0.126613,-0.330827 0.34308,-0.449271 0.522788,-0.449271 0.09394,0 0.159287,0.01225 0.240973,0.03676 l 0.102107,-0.518704 c -0.06943,-0.02859 -0.14295,-0.04901 -0.269563,-0.04901 -0.236888,0 -0.481945,0.163371 -0.6494,0.461523 h -0.01225 L 62.965121,38.9539 h -0.490114 z"
         id="path409" /><path
         d="m 65.203314,41.298276 c 0.281816,0 0.571799,-0.09802 0.796435,-0.253225 l -0.204214,-0.367585 c -0.163371,0.102107 -0.326743,0.159287 -0.514619,0.159287 -0.338996,0 -0.584052,-0.196046 -0.633064,-0.571799 h 1.409077 c 0.01634,-0.0531 0.02859,-0.163372 0.02859,-0.277731 0,-0.62898 -0.326743,-1.090503 -0.955722,-1.090503 -0.543209,0 -1.065997,0.461523 -1.065997,1.200778 0,0.755592 0.498282,1.200778 1.139514,1.200778 z m -0.56363,-1.433582 c 0.04493,-0.330827 0.257309,-0.502366 0.498282,-0.502366 0.294068,0 0.432933,0.196045 0.432933,0.502366 z"
         id="path411" /><path
         d="m 67.367983,41.298276 c 0.20013,0 0.359417,-0.04493 0.481945,-0.08577 l -0.09802,-0.437018 c -0.06126,0.0245 -0.151118,0.04901 -0.224635,0.04901 -0.204214,0 -0.310405,-0.122528 -0.310405,-0.383922 v -1.012902 h 0.56363 V 38.9539 h -0.56363 v -0.616727 h -0.498283 l -0.06943,0.616727 -0.355333,0.02859 v 0.445186 h 0.322658 v 1.012902 c 0,0.510535 0.208299,0.857698 0.751508,0.857698 z"
         id="path413" /><path
         d="m 68.246102,41.241096 h 0.60039 V 38.9539 h -0.60039 z m 0.302237,-2.654782 c 0.204214,0 0.347164,-0.130696 0.347164,-0.330826 0,-0.196046 -0.14295,-0.326743 -0.347164,-0.326743 -0.208298,0 -0.351248,0.130697 -0.351248,0.326743 0,0.20013 0.14295,0.330826 0.351248,0.330826 z"
         id="path415" /><path
         d="m 70.459788,41.298276 c 0.253225,0 0.530956,-0.08577 0.751507,-0.277731 L 70.970323,40.62437 c -0.126613,0.106191 -0.281816,0.183793 -0.445187,0.183793 -0.326742,0 -0.567715,-0.277731 -0.567715,-0.710665 0,-0.428849 0.236889,-0.710665 0.588137,-0.710665 0.126612,0 0.232804,0.0531 0.347163,0.151119 l 0.2859,-0.388007 c -0.167455,-0.14295 -0.383922,-0.253225 -0.665738,-0.253225 -0.62081,0 -1.168104,0.441102 -1.168104,1.200778 0,0.759676 0.481945,1.200778 1.115009,1.200778 z"
         id="path417" /><path
         d="m 72.154769,41.298276 c 0.261393,0 0.490113,-0.130697 0.690243,-0.302236 h 0.01634 l 0.04084,0.245056 h 0.490113 v -1.335559 c 0,-0.661653 -0.298152,-1.008817 -0.87812,-1.008817 -0.359416,0 -0.686159,0.134781 -0.955721,0.302236 l 0.216467,0.396176 c 0.212382,-0.122529 0.416596,-0.216467 0.628979,-0.216467 0.281815,0 0.379838,0.17154 0.392091,0.396175 -0.923048,0.09802 -1.319223,0.355332 -1.319223,0.845446 0,0.388007 0.269563,0.67799 0.677991,0.67799 z m 0.196045,-0.469692 c -0.175624,0 -0.302237,-0.0776 -0.302237,-0.257309 0,-0.204214 0.187877,-0.359417 0.747424,-0.42885 v 0.461524 c -0.147035,0.14295 -0.273647,0.224635 -0.445187,0.224635 z"
         id="path419" /><path
         d="m 74.568575,41.298276 c 0.14295,0 0.240973,-0.0245 0.310406,-0.05309 l -0.07352,-0.445187 c -0.04084,0.0082 -0.05718,0.0082 -0.08169,0.0082 -0.05718,0 -0.118444,-0.04493 -0.118444,-0.183793 v -2.642529 h -0.600389 v 2.618024 c 0,0.424765 0.147034,0.698411 0.56363,0.698411 z"
         id="path421" /><path
         d="m 76.925206,39.664564 c 0.08985,-0.314489 0.179708,-0.657569 0.257309,-0.988395 h 0.02042 c 0.08577,0.326742 0.167455,0.673906 0.261394,0.988395 l 0.08985,0.330827 h -0.718834 z m -1.045576,1.576532 h 0.612642 l 0.212382,-0.776013 h 0.980228 l 0.212382,0.776013 h 0.633064 l -0.972059,-3.026451 h -0.710665 z"
         id="path423" /><path
         d="m 79.567735,41.298276 c 0.596305,0 0.910795,-0.322658 0.910795,-0.722917 0,-0.424765 -0.334911,-0.575884 -0.637148,-0.690243 -0.240973,-0.08985 -0.453355,-0.151119 -0.453355,-0.318574 0,-0.130697 0.09802,-0.220551 0.306321,-0.220551 0.167455,0 0.326742,0.0776 0.490113,0.196045 l 0.269563,-0.363501 c -0.187877,-0.14295 -0.445187,-0.281815 -0.776013,-0.281815 -0.522788,0 -0.853615,0.289984 -0.853615,0.698412 0,0.383922 0.322658,0.559546 0.612642,0.669822 0.240973,0.09394 0.477861,0.171539 0.477861,0.343079 0,0.14295 -0.102107,0.240973 -0.330827,0.240973 -0.212382,0 -0.408428,-0.08986 -0.612642,-0.249141 l -0.273646,0.375753 c 0.228719,0.187877 0.56363,0.322658 0.869951,0.322658 z"
         id="path425" /><path
         d="m 81.679308,41.298276 c 0.20013,0 0.359417,-0.04493 0.481945,-0.08577 l -0.09802,-0.437018 c -0.06126,0.0245 -0.151118,0.04901 -0.224635,0.04901 -0.204214,0 -0.310405,-0.122528 -0.310405,-0.383922 v -1.012902 h 0.56363 V 38.9539 h -0.56363 V 38.337173 H 81.02991 l -0.06943,0.616727 -0.355333,0.02859 v 0.445186 H 80.9278 v 1.012902 c 0,0.510535 0.208299,0.857698 0.751508,0.857698 z"
         id="path427" /><path
         d="m 82.557424,41.241096 h 0.600389 v -1.364149 c 0.126612,-0.330827 0.343079,-0.449271 0.522788,-0.449271 0.09394,0 0.159287,0.01225 0.240972,0.03676 l 0.102107,-0.518704 c -0.06943,-0.02859 -0.14295,-0.04901 -0.269562,-0.04901 -0.236889,0 -0.481945,0.163371 -0.649401,0.461523 h -0.01225 L 83.047537,38.9539 h -0.490113 z"
         id="path429" /><path
         d="m 85.244888,41.298276 c 0.571799,0 1.098671,-0.441102 1.098671,-1.200778 0,-0.759676 -0.526872,-1.200778 -1.098671,-1.200778 -0.571799,0 -1.098671,0.441102 -1.098671,1.200778 0,0.759676 0.526872,1.200778 1.098671,1.200778 z m 0,-0.490113 c -0.310405,0 -0.486029,-0.277731 -0.486029,-0.710665 0,-0.428849 0.175624,-0.710665 0.486029,-0.710665 0.310405,0 0.486029,0.281816 0.486029,0.710665 0,0.432934 -0.175624,0.710665 -0.486029,0.710665 z"
         id="path431" /><path
         d="m 86.845929,42.119217 h 0.600389 v -0.694328 l -0.02042,-0.375754 c 0.175624,0.159287 0.367585,0.249141 0.567715,0.249141 0.502366,0 0.972059,-0.453355 0.972059,-1.237536 0,-0.702497 -0.334911,-1.16402 -0.898542,-1.16402 -0.245057,0 -0.481945,0.130697 -0.673906,0.294068 H 87.38097 L 87.336043,38.9539 h -0.490114 z m 1.012902,-1.315138 c -0.122529,0 -0.269563,-0.04493 -0.412513,-0.17154 v -1.004733 c 0.155203,-0.159287 0.294069,-0.236888 0.449271,-0.236888 0.31449,0 0.453355,0.240972 0.453355,0.67799 0,0.498282 -0.212382,0.735171 -0.490113,0.735171 z"
         id="path433" /><path
         d="m 89.476201,41.241096 h 0.600389 v -1.572447 c 0.167456,-0.167456 0.2859,-0.25731 0.473777,-0.25731 0.224635,0 0.322658,0.122528 0.322658,0.477861 v 1.351896 h 0.600389 v -1.425413 c 0,-0.575884 -0.212383,-0.918963 -0.70658,-0.918963 -0.310406,0 -0.535041,0.163371 -0.718834,0.334911 l 0.02859,-0.42885 v -0.82094 h -0.600389 z"
         id="path435" /><path
         d="m 92.290268,42.160059 c 0.510535,0 0.755592,-0.310405 0.955722,-0.84953 L 94.058761,38.9539 h -0.575883 l -0.31449,1.061912 c -0.05309,0.212383 -0.110275,0.432934 -0.163371,0.645317 h -0.02042 c -0.06535,-0.220551 -0.122529,-0.441103 -0.191961,-0.645317 L 92.429134,38.9539 H 91.82466 l 0.890373,2.246354 -0.04084,0.134781 c -0.06535,0.20013 -0.196046,0.347164 -0.42885,0.347164 -0.0531,0 -0.118444,-0.01634 -0.159287,-0.02859 l -0.110275,0.461523 c 0.08985,0.02859 0.179708,0.04493 0.314489,0.04493 z"
         id="path437" /><path
         d="m 95.087991,41.298276 c 0.596305,0 0.910795,-0.322658 0.910795,-0.722917 0,-0.424765 -0.334911,-0.575884 -0.637148,-0.690243 -0.240973,-0.08985 -0.453355,-0.151119 -0.453355,-0.318574 0,-0.130697 0.09802,-0.220551 0.306321,-0.220551 0.167455,0 0.326742,0.0776 0.490114,0.196045 l 0.269562,-0.363501 c -0.187877,-0.14295 -0.445187,-0.281815 -0.776013,-0.281815 -0.522788,0 -0.853615,0.289984 -0.853615,0.698412 0,0.383922 0.322658,0.559546 0.612642,0.669822 0.240973,0.09394 0.477861,0.171539 0.477861,0.343079 0,0.14295 -0.102107,0.240973 -0.330827,0.240973 -0.212382,0 -0.408428,-0.08986 -0.612642,-0.249141 l -0.273646,0.375753 c 0.228719,0.187877 0.56363,0.322658 0.869951,0.322658 z"
         id="path439" /><path
         d="m 96.456235,41.241096 h 0.600389 V 38.9539 h -0.600389 z m 0.302237,-2.654782 c 0.204214,0 0.347163,-0.130696 0.347163,-0.330826 0,-0.196046 -0.142949,-0.326743 -0.347163,-0.326743 -0.208299,0 -0.351248,0.130697 -0.351248,0.326743 0,0.20013 0.142949,0.330826 0.351248,0.330826 z"
         id="path441" /><path
         d="m 98.669917,41.298276 c 0.253225,0 0.530956,-0.08577 0.751507,-0.277731 L 99.180452,40.62437 c -0.126613,0.106191 -0.281816,0.183793 -0.445187,0.183793 -0.326742,0 -0.567715,-0.277731 -0.567715,-0.710665 0,-0.428849 0.236888,-0.710665 0.588136,-0.710665 0.126613,0 0.232804,0.0531 0.347164,0.151119 l 0.2859,-0.388007 c -0.167456,-0.14295 -0.383923,-0.253225 -0.665738,-0.253225 -0.62081,0 -1.168104,0.441102 -1.168104,1.200778 0,0.759676 0.481945,1.200778 1.115009,1.200778 z"
         id="path443" /><path
         d="m 100.50376,41.298276 c 0.5963,0 0.91079,-0.322658 0.91079,-0.722917 0,-0.424765 -0.33491,-0.575884 -0.63715,-0.690243 -0.24097,-0.08985 -0.45335,-0.151119 -0.45335,-0.318574 0,-0.130697 0.098,-0.220551 0.30632,-0.220551 0.16745,0 0.32674,0.0776 0.49011,0.196045 l 0.26956,-0.363501 c -0.18787,-0.14295 -0.44518,-0.281815 -0.77601,-0.281815 -0.52279,0 -0.853614,0.289984 -0.853614,0.698412 0,0.383922 0.322654,0.559546 0.612644,0.669822 0.24097,0.09394 0.47786,0.171539 0.47786,0.343079 0,0.14295 -0.10211,0.240973 -0.33083,0.240973 -0.21238,0 -0.40843,-0.08986 -0.61264,-0.249141 l -0.273647,0.375753 c 0.22872,0.187877 0.563627,0.322658 0.869957,0.322658 z"
         id="path445" /></g><path
       style="display:inline;fill:#000080;fill-opacity:1;stroke-width:0.2"
       d="m 37.6588,21.802046 -0.987761,0.992211 0.972191,0.941044 v 0.395995 l -1.021133,0.936594 1.021133,1.001111 v 2.037816 H 24.08152 v 5.512782 H 41.15379 V 21.793147 Z"
       id="path1416" /><path
       style="display:inline;fill:#000080;fill-opacity:1;stroke-width:0.2"
       d="m 47.271451,13.264322 v 6.128771 h 6.32069 v 3.939026 h 3.321351 v -7.028581 h -6.096288 v -3.051801 z"
       id="path1418" /><path
       style="display:inline;fill:#000080;fill-opacity:1;stroke-width:0.2"
       d="m 57.38644,12.066846 h 5.298178 l -2.59875,7.628281 z"
       id="path1420" /><path
       style="display:inline;fill:#000080;fill-opacity:1;stroke-width:0.2"
       d="m 60.085868,25.200953 -2.535825,7.330616 h 5.046482 z"
       id="path1422" /><path
       style="display:inline;fill:#000080;fill-opacity:1;stroke-width:0.2"
       d="M 63.133725,30.954419 H 74.70211 l -0.952167,2.669628 h -9.423786 z"
       id="path1424" /><path
       id="path1426"
       style="display:inline;fill:#000080;fill-opacity:1;stroke-width:0.2"
       d="m 65.591835,13.553789 -2.458248,2.466516 V 29.25929 H 74.62746 V 16.208924 h -1.245919 l -2.541964,-2.629814 -2.642733,2.516642 z m 1.353406,4.876704 c 1.122894,0 1.896525,0.707598 1.896525,1.911512 0,1.203913 -0.773631,1.940966 -1.896525,1.940966 -1.122894,0 -1.896008,-0.737053 -1.896008,-1.940966 0,-1.20893 0.773114,-1.911512 1.896008,-1.911512 z m 2.25516,0.06511 h 0.84801 v 2.112016 c 0,0.772511 0.30932,1.033528 0.802018,1.033528 0.504156,0 0.825273,-0.261017 0.825273,-1.033528 v -2.112016 h 0.813387 v 2.046903 c 0,1.234012 -0.601702,1.740462 -1.63866,1.740462 -1.031229,0 -1.650028,-0.50645 -1.650028,-1.740462 z m -2.25516,0.572058 c -0.630195,0 -1.030945,0.476748 -1.030945,1.274341 0,0.792576 0.40075,1.299145 1.030945,1.299145 0.630196,0 1.031462,-0.506569 1.031462,-1.299145 0,-0.797593 -0.401266,-1.274341 -1.031462,-1.274341 z m -3.060278,5.095813 h 3.176033 v 0.592212 h -1.178222 v 2.948657 h -0.830441 v -2.948657 h -1.16737 z m 4.39353,0 h 0.976168 l 1.335319,3.540869 H 69.720266 L 69.42881,26.796391 h -1.346687 l -0.291972,0.907955 h -0.841293 z m 2.799829,0 h 1.363224 c 0.920185,0 1.627291,0.276866 1.627291,1.11311 0,0.807573 -0.712423,1.170988 -1.604553,1.170988 h -0.555522 v 1.256771 h -0.83044 z m -2.339909,0.540019 c -0.106606,0.387061 -0.230027,0.788054 -0.353466,1.156001 l -0.123507,0.387057 h 0.987536 L 69.12547,25.859497 C 68.99642,25.49155 68.884664,25.085779 68.766835,24.703496 Z m 3.170349,0.02377 v 1.161169 h 0.499195 c 0.57231,0 0.847493,-0.205673 0.847493,-0.611849 0,-0.410954 -0.303088,-0.54932 -0.875398,-0.54932 z" /><path
       style="display:inline;fill:#000080;fill-opacity:1;stroke-width:0.2"
       d="m 78.58197,13.553771 2.456056,2.539721 -1.406004,1.406004 V 33.730832 H 76.108113 V 16.057897 Z"
       id="path1428" /><path
       style="display:inline;fill:#000080;fill-opacity:1;stroke-width:0.2"
       d="m 81.9457,13.163644 h 3.470516 v 3.090026 h 4.876519 v 3.185755 h -4.929912 v 8.596201 h 8.044479 v -2.866134 l 5.56709,5.567091 -5.633334,5.633333 -0.02516,-2.745869 h -11.35144 z"
       id="path1430" /><circle
       style="display:inline;fill:#000080;fill-opacity:1;stroke-width:0.237982"
       id="path1484"
       cx="60.073284"
       cy="22.44804"
       r="1.7842014" /><path
       id="path1504"
       style="display:inline;fill:#000080;fill-opacity:1;stroke-width:0.245815"
       d="m 47.271537,21.797424 v 1.53479 h 0.0016 a 6.2469287,6.2469287 0 0 0 -4.482931,5.990332 6.2469287,6.2469287 0 0 0 6.247164,6.246648 6.2469287,6.2469287 0 0 0 6.247164,-6.246648 6.2469287,6.2469287 0 0 0 -4.506702,-5.999633 v -1.525489 z m 1.632976,4.215247 a 3.5111439,3.5111439 0 0 1 1.084688,0.172082 c 0.0087,0.0058 0.928272,0.620841 1.158069,1.406116 0.230886,0.788999 0.288838,1.299008 -0.03152,2.037602 -0.499764,1.152208 -2.263284,1.858915 -3.535701,1.380277 0.287939,0.115523 1.063994,0.403392 1.702738,0.42168 0.798099,0.02285 1.339249,-0.142165 1.779736,-0.360185 0.440489,-0.218019 0.950635,-0.850616 1.147734,-1.081587 0.197098,-0.230948 0.196887,-0.22686 0.196887,-0.22686 a 3.5111439,3.5111439 0 0 1 -3.502628,3.273185 3.5111439,3.5111439 0 0 1 -3.511414,-3.511413 3.5111439,3.5111439 0 0 1 3.511414,-3.510897 z m -1.400432,4.965588 c 0.023,0.0097 0.0459,0.01904 0.06925,0.02791 -0.0238,-0.0096 -0.05311,-0.0212 -0.06925,-0.02791 z" /></g></svg>
